<svg width="125" height="45" fill="none" xmlns="http://www.w3.org/2000/svg"><path d="M17.932 18.766c.232 0 .463.116.695.232l1.735 1.97c-.926 1.158-2.198 2.2-3.586 2.78-1.389.694-3.124.926-5.207.926-1.735 0-3.355-.347-4.859-.927-1.388-.579-2.66-1.506-3.702-2.548-1.041-1.043-1.735-2.433-2.314-3.939C.231 15.754 0 14.133 0 12.395c0-1.853.347-3.475.926-4.981a12.494 12.494 0 012.43-3.939c1.04-1.042 2.313-1.97 3.817-2.548A13.417 13.417 0 0112.033 0c1.734 0 3.354.348 4.627.927a10.708 10.708 0 013.47 2.317l-1.503 2.085-.348.347c-.115.116-.347.116-.578.116-.116 0-.347 0-.463-.116-.231-.116-.347-.231-.578-.347-.232-.116-.463-.348-.694-.464-.232-.116-.579-.347-.926-.463-.347-.116-.81-.232-1.273-.348-.462-.115-1.04-.115-1.735-.115-1.041 0-2.082.231-3.008.579-.925.347-1.62.927-2.314 1.622-.694.695-1.157 1.621-1.504 2.664-.463.927-.578 2.2-.578 3.591 0 1.39.231 2.549.578 3.591a6.877 6.877 0 001.62 2.665c.694.695 1.388 1.274 2.314 1.621.925.348 1.85.58 2.892.58.579 0 1.157 0 1.62-.116.463-.116.925-.116 1.388-.348.463-.116.81-.348 1.157-.58.347-.23.694-.462 1.157-.81.116-.116.231-.232.347-.232h.231zm10.065 5.677h-2.892c-.925 0-1.62-.695-1.62-1.622V.232h4.512v24.21zM50.21.232V3.94h-7.288v20.504H40.03c-.926 0-1.62-.695-1.62-1.622V3.94h-7.173V.232h18.974zm7.752 24.211H55.07c-.926 0-1.62-.695-1.62-1.622V.232h4.512v24.21zm18.048-8.92c.116.348.347.811.463 1.159.115-.464.347-.811.463-1.159.115-.347.347-.81.578-1.158L84.687.927c.116-.116.231-.347.231-.347.116-.116.232-.116.347-.232.116 0 .232-.116.347-.116h3.818v24.21h-2.314c-.925 0-1.62-.694-1.62-1.62V7.877c0-.348 0-.695.116-1.043l-7.288 13.67c-.347.694-.81 1.042-1.504 1.042h-.579c-.694 0-1.272-.348-1.62-1.043L67.218 6.72c0 .348.116.695.116 1.043v16.564H63.4V.232h3.818c.116 0 .232 0 .347.116.116 0 .232.116.347.232.116.115.232.231.232.347l7.173 13.438c.347.347.462.81.694 1.158zm23.37 8.92h-2.892c-.926 0-1.62-.695-1.62-1.622V.232h4.512v24.21zm10.76-12.511l-7.751-11.7h4.512c.347 0 .578 0 .694.116.115.116.231.232.347.463l5.437 8.92c0-.116.116-.232.232-.463.115-.116.115-.232.231-.464l5.091-7.993c.115-.231.231-.347.347-.463.115-.116.347-.116.578-.116h4.281l-7.752 11.584 7.983 12.627h-4.512c-.347 0-.578-.116-.694-.232-.231-.116-.347-.347-.463-.579l-5.553-9.267-.347.695-5.322 8.572c-.116.232-.231.348-.463.58-.115.115-.347.23-.694.23h-4.165l7.983-12.51zM4.975 43.21c-.116.232-.463.347-.81.463-.347.116-.694.232-1.157.232-.926 0-1.62-.232-2.198-.81C.23 42.514 0 41.82 0 40.892s.231-1.622.81-2.2c.578-.58 1.272-.812 2.198-.812.694 0 1.388.232 1.735.58l-.578 1.042a2.23 2.23 0 00-1.157-.347c-.463 0-.81.115-1.157.463-.347.347-.463.695-.463 1.274 0 .463.116.927.463 1.274.347.348.694.464 1.273.464.462 0 .925-.116 1.272-.464l.579 1.043zm1.62-4.518c.578-.58 1.272-.81 2.198-.81.925 0 1.62.23 2.198.81.579.58.926 1.274.926 2.201 0 .811-.232 1.622-.926 2.201-.578.58-1.273.811-2.198.811-.926 0-1.62-.232-2.198-.81-.579-.58-.81-1.275-.81-2.202-.116-.927.231-1.622.81-2.2zm1.041 3.36c.347.347.694.463 1.157.463.578 0 .925-.116 1.273-.464.23-.347.462-.695.462-1.274 0-.579-.115-.927-.463-1.274-.347-.347-.694-.463-1.156-.463-.463 0-.926.116-1.157.463-.347.347-.463.695-.463 1.274-.232.58 0 .927.347 1.274zm5.784 1.621v-5.792h3.47v1.275h-2.082v1.042h1.851v1.274h-1.85v1.043h2.197v1.274H13.42v-.116zm4.628 1.042v-2.2h.578c.116-.232.347-.58.463-1.159.232-.58.232-1.39.347-2.2v-1.16h3.818v4.518h.81v2.201H22.79v-1.042h-3.586v1.042h-1.157zm2.66-4.517c0 .463-.115.926-.23 1.39-.116.463-.232.81-.348.926h1.851v-3.359h-1.157l-.115 1.043zm5.902 3.475h-1.158v-5.792h1.273v3.591l2.545-3.59h1.157v5.791h-1.273v-3.59l-2.545 3.59zm9.37 0v-2.317h-2.082v2.317H32.51v-5.792h1.272v2.201h2.199v-2.2h1.272v5.791h-1.272zm5.785 0V41.82h-.579l-1.157 1.853h-1.504l1.389-2.2a1.85 1.85 0 01-.926-1.623c0-.579.231-1.158.579-1.506.347-.347 1.04-.579 1.85-.579h1.62v5.792h-1.272v.116zm0-3.012v-1.39h-.463a.791.791 0 00-.81.811c0 .347.232.695.579.695h.694v-.116zm5.785 3.012V41.82h-.578l-1.157 1.853H44.31l1.389-2.2a1.85 1.85 0 01-.926-1.623c0-.579.232-1.158.579-1.506.347-.347 1.041-.579 1.85-.579h1.62v5.792H47.55v.116zm0-3.012v-1.39h-.463a.791.791 0 00-.81.811c0 .347.232.695.579.695h.694v-.116zm8.677 3.012v-4.518h-1.273l-.115 1.043c-.347 3.012-1.041 3.707-2.43 3.475v-1.274c.232 0 .347 0 .579-.232.115-.116.231-.348.231-.463.116-.464.347-1.39.347-2.549l.116-1.158H57.5v5.792h-1.273v-.116zm8.33-5.792L62.59 42.4c-.347.927-.926 1.39-1.736 1.39-.347 0-.694-.116-.925-.232l.463-1.158c.115.116.231.116.347.116.231 0 .347-.116.463-.232l.115-.116-2.43-4.17h1.505l1.62 2.78 1.156-2.78h1.389v-.116zm5.321 0v5.792h-1.272v-2.2c-.232.231-.694.347-1.273.347-.81 0-1.735-.464-1.735-1.854v-2.085h1.272v1.622c0 .81.347 1.043.81 1.043.347 0 .579-.116.926-.348v-2.317h1.272zm1.968 5.792v-5.792h1.272V42.4h1.389v-4.518h1.272V42.4h1.389v-4.518h1.272v5.792h-6.594zm8.792 0v-5.792h3.47v1.275h-2.082v1.042h1.851v1.274h-1.851v1.043h2.198v1.274h-3.586v-.116zm5.206 0v-5.792h3.47v1.275h-2.082v1.042h1.851v1.274h-1.85v1.043h2.197v1.274h-3.586v-.116z" fill="#fff"/></svg>