<svg width="125" height="45" viewBox="0 0 125 45" fill="none" xmlns="http://www.w3.org/2000/svg">
<path d="M17.9324 18.7663C18.1638 18.7663 18.3952 18.8821 18.6265 18.998L20.3619 20.9673C19.4364 22.1257 18.1638 23.1683 16.7755 23.7475C15.3871 24.4425 13.6517 24.6742 11.5693 24.6742C9.83389 24.6742 8.21419 24.3267 6.71018 23.7475C5.32187 23.1683 4.04925 22.2415 3.00801 21.199C1.96678 20.1564 1.27262 18.7663 0.694157 17.2604C0.231386 15.7544 0 14.1326 0 12.395C0 10.5416 0.347078 8.91978 0.925542 7.41385C1.50401 5.90791 2.31386 4.63365 3.35509 3.47524C4.39633 2.43267 5.66895 1.50594 7.17295 0.92673C8.67696 0.347523 10.2967 0 12.0321 0C13.7674 0 15.3871 0.347523 16.6598 0.92673C18.0481 1.50594 19.205 2.31682 20.1305 3.24355L18.6265 5.3287C18.5108 5.44454 18.3952 5.56038 18.2795 5.67623C18.1638 5.79207 17.9324 5.79207 17.701 5.79207C17.5853 5.79207 17.3539 5.79207 17.2382 5.67623C17.0068 5.56038 16.8911 5.44454 16.6598 5.3287C16.4284 5.21286 16.197 4.98117 15.9656 4.86533C15.7342 4.74949 15.3871 4.51781 15.0401 4.40196C14.693 4.28612 14.2302 4.17029 13.7674 4.05445C13.3047 3.9386 12.7262 3.93861 12.0321 3.93861C10.9908 3.93861 9.94958 4.17029 9.02404 4.51781C8.0985 4.86534 7.40434 5.44454 6.71018 6.13958C6.01603 6.83463 5.55325 7.76137 5.20618 8.80394C4.7434 9.73067 4.62771 11.0049 4.62771 12.395C4.62771 13.7851 4.8591 14.9435 5.20618 15.9861C5.55325 17.0287 6.13172 17.9554 6.82587 18.6505C7.52003 19.3455 8.21419 19.9247 9.13973 20.2722C10.0653 20.6198 10.9908 20.8514 12.0321 20.8514C12.6105 20.8514 13.189 20.8514 13.6517 20.7356C14.1145 20.6198 14.5773 20.6198 15.0401 20.3881C15.5028 20.2722 15.8499 20.0405 16.197 19.8089C16.5441 19.5772 16.8911 19.3455 17.3539 18.998C17.4696 18.8821 17.5853 18.7663 17.701 18.7663C17.701 18.7663 17.8167 18.7663 17.9324 18.7663Z" fill="white"/>
<path d="M27.9974 24.4429H25.1051C24.1795 24.4429 23.4854 23.7478 23.4854 22.8211V0.232056H27.9974V24.4429Z" fill="white"/>
<path d="M50.2109 0.232056V3.93898H42.9223V24.4429H40.03C39.1044 24.4429 38.4103 23.7478 38.4103 22.8211V3.93898H31.2373V0.232056H50.2109V0.232056Z" fill="white"/>
<path d="M57.9622 24.4429H55.0699C54.1443 24.4429 53.4502 23.7478 53.4502 22.8211V0.232056H57.9622V24.4429Z" fill="white"/>
<path d="M76.0099 15.5231C76.1256 15.8706 76.357 16.334 76.4727 16.6815C76.5884 16.2182 76.8198 15.8706 76.9355 15.5231C77.0512 15.1756 77.2826 14.7122 77.5139 14.3647L84.6869 0.927106C84.8026 0.811265 84.9183 0.579583 84.9183 0.579583C85.034 0.463742 85.1497 0.463741 85.2654 0.3479C85.381 0.3479 85.4967 0.232056 85.6124 0.232056C85.7281 0.232056 85.9595 0.232056 86.0752 0.232056H89.4303V24.4429H87.1164C86.1909 24.4429 85.4967 23.7478 85.4967 22.8211V8.80431C85.4967 8.57263 85.4967 8.2251 85.4967 7.87758C85.4967 7.53005 85.4967 7.18254 85.6124 6.83501L78.3238 20.5043C77.9767 21.1993 77.5139 21.5469 76.8198 21.5469H76.2413C75.5472 21.5469 74.9687 21.1993 74.6216 20.5043L67.2173 6.71917C67.2173 7.06669 67.333 7.41422 67.333 7.76174C67.333 8.10926 67.333 8.45679 67.333 8.68847V24.327H63.3994V0.232056H66.7545C66.9859 0.232056 67.1016 0.232056 67.2173 0.232056C67.333 0.232056 67.4487 0.232058 67.5644 0.3479C67.6801 0.3479 67.7957 0.463742 67.9114 0.579583C68.0271 0.695424 68.1428 0.811265 68.1428 0.927106L75.3158 14.3647C75.6629 14.7122 75.7785 15.1756 76.0099 15.5231Z" fill="white"/>
<path d="M99.3802 24.4429H96.4879C95.5623 24.4429 94.8682 23.7478 94.8682 22.8211V0.232056H99.3802V24.4429Z" fill="white"/>
<path d="M110.14 11.932L102.389 0.232056H106.901C107.248 0.232056 107.479 0.232058 107.595 0.3479C107.71 0.463741 107.826 0.57958 107.942 0.811262L113.379 9.73105C113.379 9.6152 113.495 9.49936 113.611 9.26768C113.726 9.15184 113.726 9.03599 113.842 8.80431L118.933 0.811262C119.048 0.57958 119.164 0.463741 119.28 0.3479C119.395 0.232058 119.627 0.232056 119.858 0.232056H124.139L116.387 11.8162L124.37 24.4429H119.858C119.511 24.4429 119.28 24.327 119.164 24.2112C118.933 24.0954 118.817 23.8637 118.701 23.632L113.148 14.3647C113.032 14.5964 112.917 14.8281 112.801 15.0597L107.479 23.632C107.363 23.8637 107.248 23.9795 107.016 24.2112C106.901 24.327 106.669 24.4429 106.322 24.4429H102.157L110.14 11.932Z" fill="white"/>
<path d="M4.97479 43.2099C4.8591 43.4416 4.51202 43.5574 4.16494 43.6733C3.81786 43.7891 3.47078 43.905 3.00801 43.905C2.08247 43.905 1.38831 43.6733 0.809851 43.0941C0.231386 42.5149 0 41.8198 0 40.8931C0 39.9664 0.231386 39.2713 0.809851 38.6921C1.38831 38.1129 2.08247 37.8812 3.00801 37.8812C3.70217 37.8812 4.39633 38.1129 4.74341 38.4604L4.16494 39.503C3.81786 39.2713 3.35509 39.1555 3.00801 39.1555C2.54524 39.1555 2.19816 39.2713 1.85109 39.6188C1.50401 39.9664 1.38831 40.3139 1.38831 40.8931C1.38831 41.3565 1.50401 41.8198 1.85109 42.1674C2.19816 42.5149 2.54524 42.6307 3.12371 42.6307C3.58648 42.6307 4.04925 42.5149 4.39633 42.1674L4.97479 43.2099Z" fill="white"/>
<path d="M6.59471 38.6921C7.17318 38.1129 7.86733 37.8812 8.79288 37.8812C9.71842 37.8812 10.4126 38.1129 10.991 38.6921C11.5695 39.2713 11.9166 39.9664 11.9166 40.8931C11.9166 41.704 11.6852 42.5149 10.991 43.0941C10.4126 43.6733 9.71842 43.905 8.79288 43.905C7.86733 43.905 7.17318 43.6733 6.59471 43.0941C6.01625 42.5149 5.78486 41.8198 5.78486 40.8931C5.66917 39.9664 6.01625 39.2713 6.59471 38.6921ZM7.63595 42.0515C7.98303 42.399 8.3301 42.5149 8.79288 42.5149C9.37134 42.5149 9.71842 42.399 10.0655 42.0515C10.2969 41.704 10.5283 41.3565 10.5283 40.7773C10.5283 40.198 10.4126 39.8505 10.0655 39.503C9.71842 39.1555 9.37134 39.0396 8.90857 39.0396C8.4458 39.0396 7.98303 39.1555 7.75164 39.503C7.40456 39.8505 7.28887 40.198 7.28887 40.7773C7.05748 41.3565 7.28887 41.704 7.63595 42.0515Z" fill="white"/>
<path d="M13.4199 43.6733V37.8812H16.8907V39.1555H14.8082V40.198H16.6593V41.4723H14.8082V42.5149H17.0064V43.7891H13.4199V43.6733Z" fill="white"/>
<path d="M18.0479 44.7155V42.5145H18.6263C18.742 42.2828 18.9734 41.9353 19.0891 41.3561C19.3205 40.7769 19.3205 39.966 19.4362 39.1551V37.9967H23.254V42.5145H24.0639V44.7155H22.7913V43.6729H19.2048V44.7155H18.0479ZM20.7088 40.1977C20.7088 40.6611 20.5931 41.1244 20.4774 41.5878C20.3617 42.0512 20.246 42.3987 20.1303 42.5145H21.9814V39.1551H20.8245L20.7088 40.1977Z" fill="white"/>
<path d="M26.6091 43.6733H25.4521V37.8812H26.7248V41.4723L29.27 37.8812H30.4269V43.6733H29.1543V40.0822L26.6091 43.6733Z" fill="white"/>
<path d="M35.9806 43.6733V41.3565H33.8981V43.6733H32.5098V37.8812H33.7824V40.0822H35.9806V37.8812H37.2532V43.6733H35.9806Z" fill="white"/>
<path d="M41.7648 43.673V41.8196H41.1863L40.0294 43.673H38.5254L39.9137 41.4721C39.3352 41.1245 38.9882 40.5453 38.9882 39.8503C38.9882 39.2711 39.2195 38.6919 39.5666 38.3443C39.9137 37.9968 40.6079 37.7651 41.4177 37.7651C41.5334 37.7651 41.7648 37.7651 42.2276 37.7651C42.5746 37.7651 42.9217 37.7651 43.0374 37.7651V43.5572H41.7648V43.673ZM41.7648 40.6612V39.2711C41.6491 39.2711 41.5334 39.2711 41.302 39.2711C40.8392 39.2711 40.4922 39.6186 40.4922 40.082C40.4922 40.4295 40.7236 40.777 41.0706 40.777H41.7648V40.6612Z" fill="white"/>
<path d="M47.5499 43.673V41.8196H46.9715L45.8146 43.673H44.3105L45.6989 41.4721C45.1204 41.1245 44.7733 40.5453 44.7733 39.8503C44.7733 39.2711 45.0047 38.6919 45.3518 38.3443C45.6989 37.9968 46.393 37.7651 47.2029 37.7651C47.3186 37.7651 47.5499 37.7651 48.0127 37.7651C48.3598 37.7651 48.7069 37.7651 48.8226 37.7651V43.5572H47.5499V43.673ZM47.5499 40.6612V39.2711C47.4343 39.2711 47.3186 39.2711 47.0872 39.2711C46.6244 39.2711 46.2773 39.6186 46.2773 40.082C46.2773 40.4295 46.5087 40.777 46.8558 40.777H47.5499V40.6612Z" fill="white"/>
<path d="M56.227 43.6729V39.1551H54.9544L54.8387 40.1977C54.4916 43.2096 53.7975 43.9046 52.4092 43.6729V42.3987C52.6406 42.3987 52.7563 42.3987 52.9876 42.167C53.1033 42.0512 53.219 41.8195 53.219 41.7036C53.3347 41.2403 53.5661 40.3135 53.5661 39.1551L53.6818 37.9967H57.4997V43.7888H56.227V43.6729Z" fill="white"/>
<path d="M64.5566 37.8812L62.5899 42.399C62.2428 43.3258 61.6643 43.7891 60.8545 43.7891C60.5074 43.7891 60.1603 43.6733 59.9289 43.5574L60.3917 42.399C60.5074 42.5149 60.6231 42.5149 60.7388 42.5149C60.9702 42.5149 61.0859 42.399 61.2016 42.2832L61.3172 42.1674L58.8877 37.9971H60.3917L62.0114 40.7773L63.1683 37.9971H64.5566V37.8812Z" fill="white"/>
<path d="M69.8783 37.8812V43.6733H68.6057V41.4723C68.3743 41.704 67.9115 41.8198 67.333 41.8198C66.5232 41.8198 65.5977 41.3565 65.5977 39.9664V37.8812H66.8703V39.503C66.8703 40.3139 67.2174 40.5456 67.6801 40.5456C68.0272 40.5456 68.2586 40.4297 68.6057 40.1981V37.8812H69.8783Z" fill="white"/>
<path d="M71.8457 43.6733V37.8812H73.1183V42.399H74.5066V37.8812H75.7793V42.399H77.1676V37.8812H78.4402V43.6733H71.8457Z" fill="white"/>
<path d="M80.6377 43.6733V37.8812H84.1085V39.1555H82.026V40.198H83.8771V41.4723H82.026V42.5149H84.2242V43.7891H80.6377V43.6733Z" fill="white"/>
<path d="M85.8438 43.6733V37.8812H89.3145V39.1555H87.2321V40.198H89.0832V41.4723H87.2321V42.5149H89.4302V43.7891H85.8438V43.6733Z" fill="white"/>
</svg>
