<svg width="25" height="25" viewBox="0 0 25 25" fill="none" xmlns="http://www.w3.org/2000/svg">
<path d="M20.9587 24.5833H4.04199C3.08058 24.5833 2.15855 24.2014 1.47873 23.5216C0.798911 22.8417 0.416992 21.9197 0.416992 20.9583V1.62496C0.416992 1.30449 0.544298 0.997145 0.770905 0.770539C0.997511 0.543932 1.30486 0.416626 1.62533 0.416626H18.542C18.8625 0.416626 19.1698 0.543932 19.3964 0.770539C19.623 0.997145 19.7503 1.30449 19.7503 1.62496V16.125H24.5837V20.9583C24.5837 21.9197 24.2017 22.8417 23.5219 23.5216C22.8421 24.2014 21.9201 24.5833 20.9587 24.5833ZM19.7503 18.5416V20.9583C19.7503 21.2788 19.8776 21.5861 20.1042 21.8127C20.3308 22.0393 20.6382 22.1666 20.9587 22.1666C21.2791 22.1666 21.5865 22.0393 21.8131 21.8127C22.0397 21.5861 22.167 21.2788 22.167 20.9583V18.5416H19.7503ZM17.3337 22.1666V2.83329H2.83366V20.9583C2.83366 21.2788 2.96097 21.5861 3.18757 21.8127C3.41418 22.0393 3.72152 22.1666 4.04199 22.1666H17.3337ZM5.25033 6.45829H14.917V8.87496H5.25033V6.45829ZM5.25033 11.2916H14.917V13.7083H5.25033V11.2916ZM5.25033 16.125H11.292V18.5416H5.25033V16.125Z" fill="white"/>
</svg>
