<svg width="28" height="25" viewBox="0 0 28 25" fill="none" xmlns="http://www.w3.org/2000/svg">
<path d="M20.3 0C24.5532 0 28 3.37838 28 8.10811C28 17.5676 17.5 22.973 14 25C10.5 22.973 0 17.5676 0 8.10811C0 3.37838 3.5 0 7.7 0C10.304 0 12.6 1.35135 14 2.7027C15.4 1.35135 17.696 0 20.3 0ZM15.3076 21.0865C16.541 20.3351 17.654 19.5878 18.6956 18.7878C22.869 15.5851 25.2 12.0851 25.2 8.10811C25.2 4.91892 23.0482 2.7027 20.3 2.7027C18.7936 2.7027 17.164 3.47297 15.9796 4.61351L14 6.52432L12.0204 4.61351C10.836 3.47297 9.2064 2.7027 7.7 2.7027C4.984 2.7027 2.8 4.94054 2.8 8.10811C2.8 12.0865 5.1324 15.5851 9.303 18.7878C10.346 19.5878 11.459 20.3351 12.6924 21.0851C13.111 21.3405 13.5254 21.5851 14 21.8581C14.4746 21.5851 14.889 21.3405 15.3076 21.0865Z" fill="#09121F"/>
</svg>
