<svg width="22" height="22" viewBox="0 0 22 22" fill="none" xmlns="http://www.w3.org/2000/svg">
<path d="M3.99984 5.41402L0.756836 2.17202L2.17184 0.757019L5.41384 4.00002H20.6558C20.8117 4.00001 20.9654 4.03643 21.1047 4.10639C21.244 4.17634 21.365 4.27788 21.4581 4.40292C21.5511 4.52795 21.6137 4.673 21.6407 4.82651C21.6678 4.98001 21.6586 5.13771 21.6138 5.28702L19.2138 13.287C19.1521 13.4931 19.0255 13.6738 18.853 13.8022C18.6804 13.9307 18.471 14 18.2558 14H5.99984V16H16.9998V18H4.99984C4.73462 18 4.48027 17.8947 4.29273 17.7071C4.10519 17.5196 3.99984 17.2652 3.99984 17V5.41402ZM5.99984 6.00002V12H17.5118L19.3118 6.00002H5.99984ZM5.49984 22C5.10201 22 4.72048 21.842 4.43918 21.5607C4.15787 21.2794 3.99984 20.8978 3.99984 20.5C3.99984 20.1022 4.15787 19.7207 4.43918 19.4394C4.72048 19.1581 5.10201 19 5.49984 19C5.89766 19 6.27919 19.1581 6.5605 19.4394C6.8418 19.7207 6.99984 20.1022 6.99984 20.5C6.99984 20.8978 6.8418 21.2794 6.5605 21.5607C6.27919 21.842 5.89766 22 5.49984 22ZM17.4998 22C17.102 22 16.7205 21.842 16.4392 21.5607C16.1579 21.2794 15.9998 20.8978 15.9998 20.5C15.9998 20.1022 16.1579 19.7207 16.4392 19.4394C16.7205 19.1581 17.102 19 17.4998 19C17.8977 19 18.2792 19.1581 18.5605 19.4394C18.8418 19.7207 18.9998 20.1022 18.9998 20.5C18.9998 20.8978 18.8418 21.2794 18.5605 21.5607C18.2792 21.842 17.8977 22 17.4998 22Z" fill="#002C3E"/>
</svg>
