<svg width="26" height="26" viewBox="0 0 26 26" fill="none" xmlns="http://www.w3.org/2000/svg">
<path d="M13 26C5.8201 26 0 20.1799 0 13C0 5.8201 5.8201 0 13 0C20.1799 0 26 5.8201 26 13C26 20.1799 20.1799 26 13 26ZM6.5169 21.1328C8.35711 22.604 10.644 23.4037 13 23.4C15.561 23.4 17.9049 22.4744 19.7171 20.9404C18.8704 20.0717 17.8582 19.3815 16.7401 18.9108C15.6221 18.4401 14.4211 18.1984 13.208 18.2C11.9504 18.1985 10.7062 18.4585 9.55431 18.9634C8.40246 19.4682 7.36811 20.207 6.5169 21.1328ZM4.7008 19.266C5.79339 18.1065 7.11187 17.183 8.57498 16.5525C10.0381 15.922 11.6148 15.5979 13.208 15.6C14.7441 15.598 16.2656 15.8995 17.6849 16.4871C19.1042 17.0747 20.3934 17.9369 21.4786 19.0242C22.5915 17.4579 23.2487 15.6138 23.3773 13.6967C23.506 11.7795 23.1009 9.86425 22.2072 8.16329C21.3135 6.46233 19.9661 5.04221 18.3144 4.06048C16.6626 3.07875 14.7712 2.57379 12.85 2.60163C10.9287 2.62947 9.05276 3.18901 7.43018 4.21818C5.80759 5.24736 4.50185 6.70592 3.6578 8.43206C2.81375 10.1582 2.4644 12.0844 2.64851 13.997C2.83262 15.9096 3.54299 17.7339 4.7008 19.2673V19.266ZM13 14.3C11.6209 14.3 10.2982 13.7521 9.32304 12.777C8.34785 11.8018 7.8 10.4791 7.8 9.1C7.8 7.72087 8.34785 6.39823 9.32304 5.42304C10.2982 4.44785 11.6209 3.9 13 3.9C14.3791 3.9 15.7018 4.44785 16.677 5.42304C17.6521 6.39823 18.2 7.72087 18.2 9.1C18.2 10.4791 17.6521 11.8018 16.677 12.777C15.7018 13.7521 14.3791 14.3 13 14.3ZM13 11.7C13.6896 11.7 14.3509 11.4261 14.8385 10.9385C15.3261 10.4509 15.6 9.78956 15.6 9.1C15.6 8.41044 15.3261 7.74912 14.8385 7.26152C14.3509 6.77393 13.6896 6.5 13 6.5C12.3104 6.5 11.6491 6.77393 11.1615 7.26152C10.6739 7.74912 10.4 8.41044 10.4 9.1C10.4 9.78956 10.6739 10.4509 11.1615 10.9385C11.6491 11.4261 12.3104 11.7 13 11.7Z" fill="#09121F"/>
</svg>
