<svg width="127" height="99" viewBox="0 0 127 99" fill="none" xmlns="http://www.w3.org/2000/svg">
<path d="M18.2288 92.556C18.464 92.556 18.6992 92.6738 18.9344 92.7916L20.6985 94.7934C19.7576 95.971 18.464 97.0308 17.0527 97.6196C15.6414 98.3261 13.8774 98.5616 11.7605 98.5616C9.99641 98.5616 8.34994 98.2083 6.82108 97.6196C5.40982 97.0308 4.11617 96.0887 3.05773 95.0289C1.99928 93.9691 1.29365 92.5561 0.705629 91.0252C0.23521 89.4944 0 87.8458 0 86.0795C0 84.1954 0.352815 82.5468 0.940839 81.016C1.52886 79.4852 2.3521 78.1898 3.41054 77.0123C4.46898 75.9525 5.76264 75.0104 7.2915 74.4217C8.82036 73.8329 10.4668 73.4796 12.2309 73.4796C13.995 73.4796 15.6414 73.8329 16.9351 74.4217C18.3464 75.0104 19.5224 75.8347 20.4632 76.7768L18.9344 78.8964C18.8168 79.0141 18.6992 79.1319 18.5816 79.2496C18.464 79.3674 18.2288 79.3674 17.9935 79.3674C17.8759 79.3674 17.6407 79.3674 17.5231 79.2496C17.2879 79.1319 17.1703 79.0141 16.9351 78.8964C16.6999 78.7786 16.4647 78.5431 16.2295 78.4254C15.9943 78.3076 15.6414 78.0721 15.2886 77.9543C14.9358 77.8366 14.4654 77.7188 13.995 77.6011C13.5246 77.4833 12.9365 77.4833 12.2309 77.4833C11.1725 77.4833 10.114 77.7188 9.17318 78.0721C8.23234 78.4254 7.52671 79.0141 6.82108 79.7207C6.11545 80.4272 5.64503 81.3693 5.29222 82.4291C4.8218 83.3711 4.70419 84.6664 4.70419 86.0795C4.70419 87.4926 4.9394 88.6701 5.29222 89.7299C5.64503 90.7897 6.23306 91.7318 6.93869 92.4383C7.64431 93.1448 8.34994 93.7336 9.29078 94.0869C10.2316 94.4401 11.1725 94.6757 12.2309 94.6757C12.8189 94.6757 13.407 94.6757 13.8774 94.5579C14.3478 94.4401 14.8182 94.4401 15.2886 94.2046C15.759 94.0869 16.1119 93.8514 16.4647 93.6159C16.8175 93.3803 17.1703 93.1448 17.6407 92.7916C17.7583 92.6738 17.8759 92.556 17.9935 92.556C17.9935 92.556 18.1111 92.556 18.2288 92.556Z" fill="#002C3E"/>
<path d="M28.4606 98.3264H25.5205C24.5797 98.3264 23.874 97.6198 23.874 96.6778V73.7154H28.4606V98.3264Z" fill="#002C3E"/>
<path d="M51.0401 73.7154V77.4836H43.631V98.3264H40.6909C39.7501 98.3264 39.0444 97.6198 39.0444 96.6778V77.4836H31.7529V73.7154H51.0401V73.7154Z" fill="#002C3E"/>
<path d="M58.9196 98.3264H55.9795C55.0386 98.3264 54.333 97.6198 54.333 96.6778V73.7154H58.9196V98.3264Z" fill="#002C3E"/>
<path d="M77.2662 89.2592C77.3838 89.6124 77.619 90.0835 77.7366 90.4367C77.8542 89.9657 78.0894 89.6124 78.207 89.2592C78.3246 88.9059 78.5598 88.4349 78.7951 88.0816L86.0866 74.4219C86.2042 74.3042 86.3218 74.0687 86.3218 74.0687C86.4394 73.9509 86.557 73.9509 86.6746 73.8332C86.7922 73.8332 86.9098 73.7154 87.0274 73.7154C87.145 73.7154 87.3802 73.7154 87.4978 73.7154H90.9084V98.3264H88.5563C87.6154 98.3264 86.9098 97.6198 86.9098 96.6778V82.4293C86.9098 82.1938 86.9098 81.8405 86.9098 81.4873C86.9098 81.134 86.9098 80.7807 87.0274 80.4275L79.6183 94.3227C79.2655 95.0292 78.7951 95.3825 78.0894 95.3825H77.5014C76.7958 95.3825 76.2078 95.0292 75.8549 94.3227L68.3282 80.3097C68.3282 80.663 68.4458 81.0163 68.4458 81.3695C68.4458 81.7228 68.4458 82.0761 68.4458 82.3116V98.2086H64.4473V73.7154H67.8578C68.093 73.7154 68.2106 73.7154 68.3282 73.7154C68.4458 73.7154 68.5634 73.7154 68.681 73.8332C68.7986 73.8332 68.9163 73.9509 69.0339 74.0687C69.1515 74.1864 69.2691 74.3042 69.2691 74.4219L76.5606 88.0816C76.9134 88.4349 77.031 88.9059 77.2662 89.2592Z" fill="#002C3E"/>
<path d="M101.023 98.3264H98.083C97.1422 98.3264 96.4365 97.6198 96.4365 96.6778V73.7154H101.023V98.3264Z" fill="#002C3E"/>
<path d="M111.959 85.6087L104.08 73.7154H108.667C109.019 73.7154 109.255 73.7154 109.372 73.8332C109.49 73.9509 109.607 74.0687 109.725 74.3042L115.252 83.3714C115.252 83.2536 115.37 83.1359 115.488 82.9003C115.605 82.7826 115.605 82.6648 115.723 82.4293L120.897 74.3042C121.015 74.0687 121.133 73.9509 121.25 73.8332C121.368 73.7154 121.603 73.7154 121.838 73.7154H126.19L118.31 85.491L126.425 98.3264H121.838C121.485 98.3264 121.25 98.2086 121.133 98.0908C120.897 97.9731 120.78 97.7376 120.662 97.5021L115.017 88.0816C114.9 88.3171 114.782 88.5526 114.664 88.7881L109.255 97.5021C109.137 97.7376 109.019 97.8553 108.784 98.0908C108.667 98.2086 108.431 98.3264 108.078 98.3264H103.845L111.959 85.6087Z" fill="#002C3E"/>
<path d="M28.4606 58.9956H23.874V71.2422H28.4606V58.9956Z" fill="#00AAE7"/>
<path d="M58.9196 0H54.333V39.2127H58.9196V0Z" fill="#D3BB2A"/>
<path d="M43.7487 19.6652H39.1621V58.9956H43.7487V19.6652Z" fill="#804199"/>
<path d="M68.9167 51.9304H64.3301V63.9414H68.9167V51.9304Z" fill="#804199"/>
<path d="M91.026 29.4388H86.4395V49.104H91.026V29.4388Z" fill="#F15A22"/>
<path d="M101.022 51.9304H96.4355V63.9414H101.022V51.9304Z" fill="#8DC63F"/>
<path d="M101.022 0H96.4355V24.611H101.022V0Z" fill="#8DC63F"/>
<path d="M58.9196 63.9415H54.333V68.7695H58.9196V63.9415Z" fill="#D3BB2A"/>
</svg>
