<svg width="30" height="30" viewBox="0 0 30 30" fill="none" xmlns="http://www.w3.org/2000/svg">
<path fill-rule="evenodd" clip-rule="evenodd" d="M15.0392 29.4944C23.1838 29.4944 29.7864 22.8918 29.7864 14.7472C29.7864 6.60254 23.1838 0 15.0392 0C6.89453 0 0.291992 6.60254 0.291992 14.7472C0.291992 22.8918 6.89453 29.4944 15.0392 29.4944Z" fill="white"/>
<path fill-rule="evenodd" clip-rule="evenodd" d="M16.2186 18.1858C16.2566 17.6002 16.5207 16.6888 17.1805 17.1859C17.5791 17.487 17.8955 17.9232 18.2537 18.3062C18.6034 18.6792 19.0206 19.005 19.7979 18.985C20.2588 18.9732 21.5828 19.0169 21.9277 18.8913C22.9699 18.5131 21.1232 16.7849 20.6722 16.3981C20.4824 16.2354 20.2698 16.0037 20.1071 15.8315C19.9059 15.6189 19.8093 15.4034 19.9691 15.0699L20.668 14.0871C20.8749 13.8611 21.6403 12.7665 21.8254 12.4668C22.0918 12.0348 22.6384 11.1857 21.9338 11.0496C21.5376 10.973 20.2512 11.0444 19.7617 11.0477C18.7974 11.0539 18.9934 10.9473 18.5177 12.0458C18.2009 12.7765 17.2228 14.4986 16.7043 14.695C15.7429 15.0594 16.495 11.5724 16.0897 10.9692C15.8437 10.6034 14.7039 10.6491 14.1706 10.6562C13.5513 10.6638 12.695 10.6966 12.5142 11.2076C12.5694 11.2547 12.509 11.2228 12.616 11.2666C12.6931 11.298 12.8134 11.3051 12.9442 11.375C13.0603 11.4364 13.1659 11.5444 13.2263 11.6414C13.5184 12.1086 13.4832 14.0766 13.2416 14.5538C12.7892 15.4452 11.4676 12.9406 11.2412 12.4944C10.9177 11.8574 10.7907 11.238 10.4244 11.0796C10.1589 10.9654 8.65423 11.0292 8.2494 11.0358C7.87882 11.0415 7.55913 11.1001 7.69995 11.5391C7.77083 11.7603 7.93923 12.0719 8.04104 12.2951C8.6685 13.6723 9.64943 15.3629 10.5138 16.5085C11.4895 17.801 12.9319 18.946 14.7553 18.9608C16.0649 18.9713 16.1639 19.0293 16.2186 18.1858Z" fill="#002C3E"/>
</svg>
